<svg width="53" height="53" viewBox="0 0 53 53" fill="none" xmlns="http://www.w3.org/2000/svg">
<path id="Vector" d="M13.75 23.3125V39.25M13.75 13.75V13.7819M26.5 39.25V23.3125M39.25 39.25V29.6875C39.25 27.9967 38.5783 26.3752 37.3828 25.1797C36.1873 23.9842 34.5658 23.3125 32.875 23.3125C31.1842 23.3125 29.5627 23.9842 28.3672 25.1797C27.1717 26.3752 26.5 27.9967 26.5 29.6875M1 7.375C1 5.68424 1.67165 4.06274 2.86719 2.86719C4.06274 1.67165 5.68424 1 7.375 1H45.625C47.3158 1 48.9373 1.67165 50.1328 2.86719C51.3283 4.06274 52 5.68424 52 7.375V45.625C52 47.3158 51.3283 48.9373 50.1328 50.1328C48.9373 51.3283 47.3158 52 45.625 52H7.375C5.68424 52 4.06274 51.3283 2.86719 50.1328C1.67165 48.9373 1 47.3158 1 45.625V7.375Z" stroke="white" stroke-width="2" stroke-linecap="round" stroke-linejoin="round"/>
</svg>
